<?xml version="1.0" encoding="UTF-8" standalone="no"?>
<svg
   xmlns:dc="http://purl.org/dc/elements/1.1/"
   xmlns:cc="http://creativecommons.org/ns#"
   xmlns:rdf="http://www.w3.org/1999/02/22-rdf-syntax-ns#"
   xmlns:svg="http://www.w3.org/2000/svg"
   xmlns="http://www.w3.org/2000/svg"
   viewBox="0 0 161.70534 40"
   height="40"
   width="161.70534"
   xml:space="preserve"
   id="svg2"
   version="1.1"><metadata
     id="metadata8"><rdf:RDF><cc:Work
         rdf:about=""><dc:format>image/svg+xml</dc:format><dc:type
           rdf:resource="http://purl.org/dc/dcmitype/StillImage" /></cc:Work></rdf:RDF></metadata><defs
     id="defs6"><clipPath
       id="clipPath18"
       clipPathUnits="userSpaceOnUse"><path
         id="path16"
         d="M 0,30 H 121.279 V 0 H 0 Z" /></clipPath></defs><g
     transform="matrix(1.3333333,0,0,-1.3333333,0,40)"
     id="g10"><g
       id="g12"><g
         clip-path="url(#clipPath18)"
         id="g14"><path
           id="path20"
           style="fill:#506a85;fill-opacity:1;fill-rule:nonzero;stroke:none"
           d="m 114.557,0 h 6.722 v 6.722 h -6.722 z M 102.683,13.493 90.547,30 H 82.591 V 0 h 7.732 V 17.361 L 102.998,0 h 7.461 v 30 h -7.776 z M 25.441,20.015 C 25.441,25.593 21.666,30 15.013,30 H 0 v -6.747 h 13.845 c 2.022,0 3.73,-1.169 3.73,-3.192 0,-2.114 -1.708,-3.239 -3.73,-3.239 H 0 V 0 h 7.731 v 10.074 h 3.956 L 16.721,0 h 8.855 l -6.113,11.021 c 2.787,0.988 5.978,3.777 5.978,8.994 M 29.778,0 h 21.98 V 6.747 H 37.51 v 5.083 h 13.933 v 6.746 H 37.51 v 4.677 H 51.758 V 30 h -21.98 z m 26.407,0 h 21.98 V 6.747 H 63.916 V 11.83 H 77.85 v 6.746 H 63.916 v 4.677 H 78.165 V 30 h -21.98 z" /></g></g></g></svg>