<?xml version="1.0" encoding="UTF-8" standalone="no"?>
<svg
   xmlns:dc="http://purl.org/dc/elements/1.1/"
   xmlns:cc="http://creativecommons.org/ns#"
   xmlns:rdf="http://www.w3.org/1999/02/22-rdf-syntax-ns#"
   xmlns:svg="http://www.w3.org/2000/svg"
   xmlns="http://www.w3.org/2000/svg"
   viewBox="0 0 151.59875 37.5"
   height="37.5"
   width="151.59875"
   xml:space="preserve"
   version="1.1"
   id="svg2"><metadata
     id="metadata8"><rdf:RDF><cc:Work
         rdf:about=""><dc:format>image/svg+xml</dc:format><dc:type
           rdf:resource="http://purl.org/dc/dcmitype/StillImage" /></cc:Work></rdf:RDF></metadata><defs
     id="defs6"><clipPath
       id="clipPath16"
       clipPathUnits="userSpaceOnUse"><path
         id="path18"
         d="m 0,30 121.279,0 0,-30 L 0,0 0,30 Z" /></clipPath></defs><g
     transform="matrix(1.25,0,0,-1.25,0,37.5)"
     id="g10"><g
       id="g12"><g
         clip-path="url(#clipPath16)"
         id="g14"><path
           id="path20"
           style="fill:#506a85;fill-opacity:1;fill-rule:nonzero;stroke:none"
           d="m 114.557,0 6.722,0 0,6.722 -6.722,0 0,-6.722 z M 102.683,13.493 90.547,30 l -7.956,0 0,-30 7.732,0 0,17.361 L 102.998,0 l 7.461,0 0,30 -7.776,0 0,-16.507 z M 25.441,20.015 C 25.441,25.593 21.666,30 15.013,30 L 0,30 l 0,-6.747 13.845,0 c 2.022,0 3.73,-1.169 3.73,-3.192 0,-2.114 -1.708,-3.239 -3.73,-3.239 L 0,16.822 0,0 l 7.731,0 0,10.074 3.956,0 L 16.721,0 25.576,0 19.463,11.021 c 2.787,0.988 5.978,3.777 5.978,8.994 M 29.778,0 l 21.98,0 0,6.747 -14.248,0 0,5.083 13.933,0 0,6.746 -13.933,0 0,4.677 14.248,0 0,6.747 -21.98,0 0,-30 z m 26.407,0 21.98,0 0,6.747 -14.249,0 0,5.083 13.934,0 0,6.746 -13.934,0 0,4.677 14.249,0 0,6.747 -21.98,0 0,-30 z" /></g></g></g></svg>